<?xml version="1.0" encoding="utf-8"?>
<!-- Generator: Adobe Illustrator 16.0.0, SVG Export Plug-In . SVG Version: 6.00 Build 0)  -->
<!DOCTYPE svg PUBLIC "-//W3C//DTD SVG 1.1//EN" "http://www.w3.org/Graphics/SVG/1.1/DTD/svg11.dtd">
<svg version="1.1" id="Layer_1" xmlns="http://www.w3.org/2000/svg" xmlns:xlink="http://www.w3.org/1999/xlink" x="0px" y="0px"
	 width="560px" height="560px" viewBox="0 0 560 560" style="enable-background:new 0 0 560 560;" xml:space="preserve">
<g>
	
		<radialGradient id="SVGID_1_" cx="284.0098" cy="89.5654" r="275.2568" gradientTransform="matrix(0.7071 0.7071 -0.7071 0.7071 142.5093 15.8428)" gradientUnits="userSpaceOnUse">
		<stop  offset="0.2118" style="stop-color:#000000"/>
		<stop  offset="1" style="stop-color:#383A6C"/>
	</radialGradient>
	<path style="fill:url(#SVGID_1_);" d="M474.6,474.6c-107.5,107.5-281.8,107.5-389.3,0c-107.5-107.5-107.5-281.8,0-389.3
		c107.5-107.5,281.8-107.5,389.3,0C582.1,192.9,582.1,367.1,474.6,474.6z"/>
	<g>
		<polygon style="fill:#F601F6;" points="40,280 280,40 520,280 		"/>
		
			<rect x="200.3" y="148" transform="matrix(-0.7071 -0.7071 0.7071 -0.7071 497.0092 586.7164)" style="fill:#F763F7;" width="339.5" height="84.9"/>
		
			<rect x="18.6" y="148.7" transform="matrix(-0.7071 0.7071 -0.7071 -0.7071 454.9526 189.0709)" style="fill:#F7F701;" width="339.5" height="80.2"/>
		<polygon style="fill:#F7F879;" points="40,280 520,280 280,520 		"/>
	</g>
</g>
</svg>
